<svg width="120" height="120" viewBox="0 0 120 120" fill="none" xmlns="http://www.w3.org/2000/svg">
  <rect width="120" height="120" fill="white" stroke="#e2e8f0" stroke-width="2"/>

  <!-- QR code pattern simulation -->
  <rect x="10" y="10" width="20" height="20" fill="black"/>
  <rect x="40" y="10" width="10" height="10" fill="black"/>
  <rect x="60" y="10" width="10" height="10" fill="black"/>
  <rect x="80" y="10" width="10" height="10" fill="black"/>
  <rect x="90" y="10" width="20" height="20" fill="black"/>

  <rect x="10" y="40" width="10" height="10" fill="black"/>
  <rect x="30" y="40" width="10" height="10" fill="black"/>
  <rect x="50" y="40" width="20" height="10" fill="black"/>
  <rect x="80" y="40" width="10" height="10" fill="black"/>
  <rect x="100" y="40" width="10" height="10" fill="black"/>

  <rect x="10" y="60" width="10" height="10" fill="black"/>
  <rect x="30" y="60" width="10" height="10" fill="black"/>
  <rect x="50" y="60" width="10" height="10" fill="black"/>
  <rect x="70" y="60" width="20" height="10" fill="black"/>
  <rect x="100" y="60" width="10" height="10" fill="black"/>

  <rect x="10" y="80" width="10" height="10" fill="black"/>
  <rect x="30" y="80" width="20" height="10" fill="black"/>
  <rect x="60" y="80" width="10" height="10" fill="black"/>
  <rect x="80" y="80" width="10" height="10" fill="black"/>
  <rect x="100" y="80" width="10" height="10" fill="black"/>

  <rect x="10" y="90" width="20" height="20" fill="black"/>
  <rect x="40" y="100" width="10" height="10" fill="black"/>
  <rect x="60" y="90" width="10" height="10" fill="black"/>
  <rect x="80" y="100" width="10" height="10" fill="black"/>
  <rect x="90" y="90" width="20" height="20" fill="black"/>

  <!-- Mobile phone icon in center -->
  <rect x="48" y="42" width="24" height="36" fill="white" stroke="black" stroke-width="2" rx="3"/>
  <rect x="51" y="46" width="18" height="24" fill="black"/>
  <circle cx="60" cy="74" r="2" fill="white"/>

  <!-- Signal waves -->
  <path d="M42 50 Q45 47 42 44" stroke="green" stroke-width="1.5" fill="none"/>
  <path d="M78 50 Q75 47 78 44" stroke="green" stroke-width="1.5" fill="none"/>

  <!-- Label -->
  <text x="60" y="15" text-anchor="middle" fill="#10b981" font-family="Arial" font-size="8">M-PESA</text>
</svg>
