<svg width="120" height="120" viewBox="0 0 120 120" fill="none" xmlns="http://www.w3.org/2000/svg">
  <rect width="120" height="120" fill="white" stroke="#e2e8f0" stroke-width="2"/>

  <!-- QR code pattern simulation -->
  <rect x="10" y="10" width="20" height="20" fill="black"/>
  <rect x="40" y="10" width="10" height="10" fill="black"/>
  <rect x="60" y="20" width="10" height="10" fill="black"/>
  <rect x="80" y="10" width="10" height="10" fill="black"/>
  <rect x="90" y="10" width="20" height="20" fill="black"/>

  <rect x="10" y="40" width="10" height="10" fill="black"/>
  <rect x="30" y="40" width="10" height="10" fill="black"/>
  <rect x="50" y="40" width="10" height="10" fill="black"/>
  <rect x="70" y="40" width="20" height="10" fill="black"/>
  <rect x="100" y="40" width="10" height="10" fill="black"/>

  <rect x="20" y="60" width="10" height="10" fill="black"/>
  <rect x="40" y="60" width="10" height="10" fill="black"/>
  <rect x="60" y="60" width="10" height="10" fill="black"/>
  <rect x="80" y="60" width="10" height="10" fill="black"/>
  <rect x="100" y="60" width="10" height="10" fill="black"/>

  <rect x="10" y="80" width="10" height="10" fill="black"/>
  <rect x="30" y="80" width="10" height="10" fill="black"/>
  <rect x="50" y="80" width="20" height="10" fill="black"/>
  <rect x="80" y="80" width="10" height="10" fill="black"/>
  <rect x="100" y="80" width="10" height="10" fill="black"/>

  <rect x="10" y="90" width="20" height="20" fill="black"/>
  <rect x="40" y="100" width="10" height="10" fill="black"/>
  <rect x="60" y="90" width="10" height="10" fill="black"/>
  <rect x="80" y="100" width="10" height="10" fill="black"/>
  <rect x="90" y="90" width="20" height="20" fill="black"/>

  <!-- PayPal P logo in center -->
  <circle cx="60" cy="55" r="18" fill="white" stroke="#0070ba" stroke-width="2"/>
  <path d="M52 45 h8 c4 0 7 2 7 6 c0 4 -3 6 -7 6 h-4 v4 h-4 v-16 z M56 49 v6 h4 c2 0 3 -1 3 -3 c0 -2 -1 -3 -3 -3 h-4 z" fill="#0070ba"/>

  <!-- Label -->
  <text x="60" y="15" text-anchor="middle" fill="#0070ba" font-family="Arial" font-size="8">PAYPAL</text>
</svg>
